:SAMPLES-PER-SECOND 30
:FULLY-SPECIFIED
:DEGREES
487
root  1.75842 39.7462 -44.4426 -1.4532 -23.5018 0.187477
RightUpLeg  1.1054 -6.34092 1.56642
RightLeg  15.6499 -27.8417 -9.16198
RightFoot  -11.8753 -0.0367064 9.45525
RightToes  -5.82094e-011 -1.98785e-016 -5.10186e-018
Spine  14.8392 0.34418 6.04367
Spine1  2.7334 0.586158 2.8431
HEad  -14.4652 14.2062 -13.0779
LeftShoulder1  1.92619 -2.6512 -25.1144
LeftArm  -13.9177 22.3167 -53.9923
LeftForeArm  65.3292 -38.2869 -5.13095
LeftHand  -0.0279712 1.26569 0.643289
RightShoulder  3.13638 5.83786 27.6019
RightArm  7.77578 -20.8401 36.2901
RightForeArm  15.1367 31.9431 6.17686
RightHand  -1.46454 5.76178 -15.4613
LeftUpLeg  -13.4888 5.37749 3.73542
LeftLeg  16.3651 7.48132 2.79856
LeftFoot  -0.88937 0.464294 -5.02096
LeftToes  -8.4584e-011 5.90861e-011 8.40072e-012
488
root  1.84187 39.7422 -44.3844 -1.40005 -23.7638 0.334625
RightUpLeg  0.8688 -5.85386 1.3624
RightLeg  15.9599 -28.0072 -9.43725
RightFoot  -11.9193 -0.03115 9.88801
RightToes  -5.82094e-011 -1.98785e-016 -5.10186e-018
Spine  15.28 0.56715 6.63819
Spine1  2.19335 1.02231 2.4016
HEad  -13.4113 14.1764 -13.7071
LeftShoulder1  1.84521 -2.38427 -25.155
LeftArm  -12.4565 23.0961 -53.9842
LeftForeArm  65.8359 -34.9939 -4.31422
LeftHand  0.0192079 0.744821 -0.572843
RightShoulder  3.2164 5.95473 28.0462
RightArm  8.27404 -19.2531 36.208
RightForeArm  14.5934 31.2889 6.04432
RightHand  -1.4981 5.84804 -15.6919
LeftUpLeg  -14.3948 5.69629 3.09173
LeftLeg  17.7895 6.00857 2.48173
LeftFoot  -1.68029 0.461176 -5.33744
LeftToes  -8.4584e-011 5.90861e-011 8.40072e-012
489
root  1.91956 39.7568 -44.2349 -1.49285 -24.0295 0.466874
RightUpLeg  1.21355 -5.88994 0.991186
RightLeg  15.5742 -27.6907 -9.26808
RightFoot  -11.8028 -0.0399265 10.0314
RightToes  -5.82094e-011 -1.98785e-016 -5.10186e-018
Spine  15.6243 0.710071 7.37341
Spine1  1.82989 1.47377 1.65805
HEad  -11.5017 14.4823 -14.0771
LeftShoulder1  1.72373 -2.01302 -25.0622
LeftArm  -10.4421 24.0315 -53.8794
LeftForeArm  66.2377 -32.3259 -3.69706
LeftHand  0.0847169 0.30908 -2.11096
RightShoulder  3.29492 6.03205 28.6113
RightArm  8.34753 -17.7567 36.3744
RightForeArm  14.189 31.0688 6.01316
RightHand  -1.45233 5.36997 -15.8651
LeftUpLeg  -14.8019 6.02317 2.46486
LeftLeg  18.5219 4.35146 1.95778
LeftFoot  -2.21818 0.447534 -5.43909
LeftToes  -8.4584e-011 5.90861e-011 8.40072e-012
490
root  2.00613 39.7827 -44.0295 -1.19241 -24.2084 0.821386
RightUpLeg  1.13674 -5.771 0.448999
RightLeg  15.1727 -27.53 -9.19162
RightFoot  -11.6922 -0.0473618 10.4834
RightToes  -5.82094e-011 -1.98785e-016 -5.10186e-018
Spine  15.7 0.889928 7.78105
Spine1  1.21617 1.80605 1.11751
HEad  -9.24807 14.3706 -14.2434
LeftShoulder1  1.57949 -1.49388 -25.4235
LeftArm  -8.58579 25.183 -53.3878
LeftForeArm  66.4372 -30.7982 -3.35969
LeftHand  0.281055 -0.256526 -5.64383
RightShoulder  3.33605 6.09145 28.8299
RightArm  8.20591 -16.2701 36.9013
RightForeArm  14.5964 31.0081 5.97498
RightHand  -1.56597 5.86309 -16.3631
LeftUpLeg  -15.4829 5.59591 1.59374
LeftLeg  18.6144 4.16451 1.89364
LeftFoot  -2.63233 0.395934 -4.98918
LeftToes  -8.4584e-011 5.90861e-011 8.40072e-012
491
root  2.07598 39.8045 -43.7378 -0.787488 -24.5224 1.18049
RightUpLeg  1.02568 -5.8566 -0.21711
RightLeg  14.809 -26.9922 -8.99083
RightFoot  -11.6594 -0.0491512 10.8415
RightToes  -5.82094e-011 -1.98785e-016 -5.10186e-018
Spine  15.2315 1.06908 8.37782
Spine1  1.06897 2.22858 0.134017
HEad  -7.25817 14.4195 -14.2928
LeftShoulder1  1.53111 -1.29282 -25.7556
LeftArm  -8.96718 27.1497 -52.9065
LeftForeArm  68.8281 -31.3179 -3.39244
LeftHand  0.540668 -2.41816 -7.90653
RightShoulder  3.42115 6.23688 29.194
RightArm  7.94098 -14.7991 37.2228
RightForeArm  15.0714 31.4727 6.06282
RightHand  -1.47767 5.85003 -15.464
LeftUpLeg  -16.0058 5.66454 0.708072
LeftLeg  18.1794 4.83265 2.10031
LeftFoot  -3.45679 0.351147 -4.79643
LeftToes  -8.4584e-011 5.90861e-011 8.40072e-012
492
root  2.15009 39.8628 -43.3956 -0.151276 -25.3353 1.51606
RightUpLeg  0.984471 -6.42913 -0.997908
RightLeg  13.5741 -25.536 -8.21631
RightFoot  -11.4027 -0.0720372 11.4785
RightToes  -5.82094e-011 -1.98785e-016 -5.10186e-018
Spine  15.0129 1.33518 8.9897
Spine1  0.70681 2.85789 -1.31158
HEad  -5.7957 14.724 -14.4877
LeftShoulder1  1.34254 -0.669032 -26.0136
LeftArm  -10.6918 29.6538 -52.8564
LeftForeArm  69.0157 -33.8152 -3.934
LeftHand  0.671029 -2.19509 -10.1021
RightShoulder  3.45756 6.30171 29.3357
RightArm  7.00491 -13.3373 37.8077
RightForeArm  15.9414 31.9932 6.14266
RightHand  -1.31293 5.3465 -14.4291
LeftUpLeg  -16.4232 6.83839 -0.109304
LeftLeg  17.2265 5.55328 2.25857
LeftFoot  -4.13817 0.326215 -4.785
LeftToes  -8.4584e-011 5.90861e-011 8.40072e-012
493
root  2.22726 39.8964 -42.976 0.32501 -26.0436 1.8865
RightUpLeg  1.30389 -7.27262 -1.94305
RightLeg  12.1423 -23.7417 -7.32494
RightFoot  -11.239 -0.087871 12.7915
RightToes  -5.82094e-011 -1.98785e-016 -5.10186e-018
Spine  14.9695 1.56004 9.50499
Spine1  0.333832 3.4308 -2.71037
HEad  -4.94764 14.6704 -14.4856
LeftShoulder1  1.15003 -0.0529941 -26.1606
LeftArm  -12.1173 31.7787 -52.9669
LeftForeArm  67.9807 -36.385 -4.56202
LeftHand  0.561429 -0.902919 -10.2998
RightShoulder  3.52304 6.45769 29.4419
RightArm  6.50208 -11.9687 38.2092
RightForeArm  16.0532 32.418 6.24373
RightHand  -1.39786 5.73336 -14.8192
LeftUpLeg  -16.507 8.04802 -1.00981
LeftLeg  16.067 6.43253 2.41381
LeftFoot  -5.48454 0.271467 -4.66912
LeftToes  -8.4584e-011 5.90861e-011 8.40072e-012
494
root  2.28773 39.9293 -42.4923 0.751666 -26.923 2.14655
RightUpLeg  1.55484 -7.3337 -2.63606
RightLeg  11.4779 -23.1498 -7.22721
RightFoot  -11.2225 -0.0889148 11.8012
RightToes  -5.82094e-011 -1.98785e-016 -5.10186e-018
Spine  14.893 1.87457 9.91798
Spine1  0.109954 4.10207 -4.15373
HEad  -4.41644 14.5309 -14.068
LeftShoulder1  1.0118 0.345301 -25.8542
LeftArm  -15.2012 33.2951 -53.8525
LeftForeArm  68.3251 -38.5821 -5.08983
LeftHand  0.510898 -1.00922 -9.19873
RightShoulder  3.60157 6.59125 29.7584
RightArm  5.93802 -10.7073 38.4371
RightForeArm  16.0671 32.9423 6.3763
RightHand  -1.41076 5.64679 -15.0599
LeftUpLeg  -16.1299 9.8557 -1.73465
LeftLeg  14.8993 8.20543 2.79733
LeftFoot  -7.44437 0.199992 -4.53798
LeftToes  -8.4584e-011 5.90861e-011 8.40072e-012
495
root  2.33469 39.9239 -41.9085 0.922142 -27.5038 2.25284
RightUpLeg  2.56862 -7.96437 -3.44763
RightLeg  10.2404 -21.8228 -6.6968
RightFoot  -11.1788 -0.0946518 13.1118
RightToes  -5.82094e-011 -1.98785e-016 -5.10186e-018
Spine  14.5644 2.01891 9.79999
Spine1  0.36347 4.4225 -4.86516
HEad  -4.29145 14.8147 -13.773
LeftShoulder1  0.948266 0.528456 -25.6819
LeftArm  -17.5039 34.3386 -54.4104
LeftForeArm  68.0396 -41.0918 -5.75686
LeftHand  0.48999 -0.954231 -8.90351
RightShoulder  3.67436 6.81881 29.6726
RightArm  5.93813 -9.46162 38.6856
RightForeArm  16.8294 33.2092 6.4008
RightHand  -1.47802 6.12285 -15.1338
LeftUpLeg  -15.2455 11.9323 -2.16607
LeftLeg  14.8389 11.2017 3.68335
LeftFoot  -9.56973 0.121977 -4.13861
LeftToes  -8.4584e-011 5.90861e-011 8.40072e-012
496
root  2.37224 39.8866 -41.2295 0.94942 -27.7036 2.41157
RightUpLeg  3.88314 -9.12806 -4.72787
RightLeg  9.11484 -19.9686 -5.71636
RightFoot  -11.3223 -0.0799674 15.4381
RightToes  -5.82094e-011 -1.98785e-016 -5.10186e-018
Spine  14.1086 2.19094 8.87357
Spine1  0.478257 4.45648 -4.6129
HEad  -3.91352 15.0413 -13.1762
LeftShoulder1  0.936023 0.565097 -25.6607
LeftArm  -18.9834 34.8588 -54.8025
LeftForeArm  68.8234 -43.5742 -6.41477
LeftHand  0.486393 -0.849257 -8.99717
RightShoulder  3.55006 6.59648 29.2173
RightArm  6.3688 -9.01704 38.7068
RightForeArm  17.6715 34.0697 6.57551
RightHand  -1.44602 6.18981 -14.7334
LeftUpLeg  -14.3336 13.9193 -2.49837
LeftLeg  16.4395 14.3696 5.0546
LeftFoot  -12.2949 0.0307426 -4.44842
LeftToes  -8.4584e-011 5.90861e-011 8.40072e-012
497
root  2.40779 39.8625 -40.4552 0.573982 -27.0202 2.82927
RightUpLeg  5.54181 -10.3411 -6.62171
RightLeg  8.87289 -18.8345 -4.79087
RightFoot  -11.6544 -0.0365218 15.7936
RightToes  -5.82094e-011 -1.98785e-016 -5.10186e-018
Spine  13.3322 2.01243 7.01845
Spine1  1.11859 3.86253 -3.68318
HEad  -3.7863 15.6615 -12.7947
LeftShoulder1  0.953955 0.51118 -25.6869
LeftArm  -19.5697 33.9192 -54.7626
LeftForeArm  69.3258 -45.3918 -6.94376
LeftHand  0.50576 -0.486729 -10.0108
RightShoulder  3.44411 6.44879 28.6623
RightArm  6.54755 -9.19789 38.6364
RightForeArm  17.6666 34.9269 6.80314
RightHand  -1.49014 6.42036 -14.8955
LeftUpLeg  -13.0501 14.392 -2.96878
LeftLeg  18.0103 17.8684 6.67056
LeftFoot  -14.8923 -0.0779689 -5.46438
LeftToes  -8.4584e-011 5.90861e-011 8.40072e-012
498
root  2.47841 39.7817 -39.5827 0.154715 -25.6027 3.07876
RightUpLeg  6.82477 -11.3747 -8.56066
RightLeg  10.4999 -18.3134 -4.47996
RightFoot  -12.1196 0.0284324 16.064
RightToes  -5.82094e-011 -1.98785e-016 -5.10186e-018
Spine  12.1479 1.53451 5.16638
Spine1  2.14292 2.85735 -2.47949
HEad  -3.52947 15.6404 -12.4543
LeftShoulder1  1.12058 0.00830801 -25.8814
LeftArm  -19.7295 32.4163 -54.4757
LeftForeArm  70.1347 -47.5266 -7.58876
LeftHand  0.472691 0.367856 -11.0151
RightShoulder  3.30426 6.15444 28.2549
RightArm  6.76554 -10.0336 37.9802
RightForeArm  17.5385 35.3734 6.93176
RightHand  -1.59682 7.31185 -14.8319
LeftUpLeg  -11.5956 14.7173 -3.57591
LeftLeg  17.9184 17.8845 6.65245
LeftFoot  -13.6256 -0.0123525 -4.74372
LeftToes  -8.4584e-011 5.90861e-011 8.40072e-012
499
root  2.59464 39.6621 -38.6792 -0.328401 -23.878 3.46279
RightUpLeg  6.75182 -12.1807 -10.4862
RightLeg  15.0982 -17.7655 -5.49791
RightFoot  -11.6429 -0.0331551 19.0719
RightToes  -5.82094e-011 -1.98785e-016 -5.10186e-018
Spine  10.953 1.07632 2.96522
Spine1  3.20023 1.74454 -1.23924
HEad  -2.86106 15.6809 -12.0057
LeftShoulder1  1.44563 -0.973606 -26.1316
LeftArm  -19.9459 29.6091 -54.3007
LeftForeArm  72.6037 -49.1569 -8.03652
LeftHand  0.552879 -0.246459 -11.4071
RightShoulder  3.04512 5.52881 27.7491
RightArm  6.88619 -11.7234 36.9416
RightForeArm  15.9435 35.2487 6.99554
RightHand  -1.81946 7.96518 -16.0604
LeftUpLeg  -10.3431 13.7187 -4.52947
LeftLeg  18.4451 16.7537 6.43953
LeftFoot  -14.437 -0.0112622 -3.50359
LeftToes  -8.4584e-011 5.90861e-011 8.40072e-012
500
root  2.72669 39.4138 -37.8721 -1.04735 -21.9197 4.25861
RightUpLeg  4.16176 -10.8609 -12.0246
RightLeg  24.586 -17.6627 -8.86103
RightFoot  -9.49062 -0.479927 23.8284
RightToes  -5.82094e-011 -1.98785e-016 -5.10186e-018
Spine  11.0226 0.690552 -0.730138
Spine1  3.37308 0.192885 0.651747
HEad  -2.27831 15.7897 -11.6462
LeftShoulder1  1.58594 -1.33332 -26.6516
LeftArm  -19.9278 25.2642 -54.3428
LeftForeArm  73.8876 -50.7436 -8.56029
LeftHand  0.458501 0.633635 -11.4058
RightShoulder  2.84825 4.98729 27.5778
RightArm  6.90388 -13.0018 35.6307
RightForeArm  13.9044 33.2656 6.58781
RightHand  -1.90518 8.34847 -16.3347
LeftUpLeg  -9.62206 11.1263 -5.91787
LeftLeg  20.601 17.183 7.32209
LeftFoot  -17.1311 -0.117937 -4.37644
LeftToes  -8.4584e-011 5.90861e-011 8.40072e-012
501
root  2.76964 39.0768 -37.0985 -2.03506 -20.8878 5.05675
RightUpLeg  -0.470847 -6.96215 -12.6919
RightLeg  36.8709 -17.2038 -13.6849
RightFoot  -4.39645 -1.2958 22.1483
RightToes  -5.82094e-011 -1.98785e-016 -5.10186e-018
Spine  11.4176 1.08826 -5.2428
Spine1  3.85731 -0.978865 3.45231
HEad  -2.14499 15.7051 -10.8238
LeftShoulder1  1.79895 -2.00905 -26.5058
LeftArm  -19.6465 20.427 -54.7013
LeftForeArm  74.1793 -53.4505 -9.62152
LeftHand  0.352878 1.64285 -11.4188
RightShoulder  2.74915 4.69693 27.5591
RightArm  6.87474 -14.5366 34.2364
RightForeArm  11.0059 30.733 6.11086
RightHand  -2.04176 8.3628 -17.4395
LeftUpLeg  -8.85362 10.0991 -7.01764
LeftLeg  23.2001 16.9612 8.12352
LeftFoot  -18.5776 -0.187404 -4.73061
LeftToes  -8.4584e-011 5.90861e-011 8.40072e-012
